<?xml version="1.0" standalone="no"?>
<!DOCTYPE svg PUBLIC "-//W3C//DTD SVG 20010904//EN"
 "http://www.w3.org/TR/2001/REC-SVG-20010904/DTD/svg10.dtd">
<svg version="1.0" xmlns="http://www.w3.org/2000/svg"
 width="858.000000pt" height="858.000000pt" viewBox="0 0 858.000000 858.000000"
 preserveAspectRatio="xMidYMid meet">
<metadata>
Created by potrace 1.11, written by Peter Selinger 2001-2013
</metadata>
<g transform="translate(0.000000,858.000000) scale(0.100000,-0.100000)"
fill="#000000" stroke="none">
<path d="M7400 8571 c0 -13 29 -78 99 -225 93 -192 92 -171 8 -191 -114 -27
-168 -47 -164 -59 2 -6 27 -19 55 -30 l52 -19 -47 -24 c-27 -14 -57 -34 -68
-44 -19 -19 -19 -19 0 -34 11 -8 43 -23 70 -34 77 -30 147 -62 143 -66 -9 -10
-159 -16 -443 -20 -291 -4 -644 -14 -682 -19 -9 -2 -37 1 -62 6 -25 5 -68 11
-96 14 -27 3 -75 10 -105 15 -30 5 -73 11 -95 14 -22 3 -63 9 -91 13 -28 5
-60 7 -71 6 -11 -2 -80 -32 -154 -68 -136 -64 -136 -64 -157 -114 -12 -28 -22
-54 -22 -57 0 -4 -6 -21 -14 -38 -8 -18 -42 -111 -77 -207 -34 -96 -65 -179
-69 -183 -6 -6 -137 36 -225 73 -11 4 -58 22 -105 40 -47 17 -92 35 -100 39
-8 4 -41 16 -73 26 -70 24 -53 40 -169 -160 -45 -77 -119 -205 -165 -283 l-85
-144 -56 7 c-31 4 -59 8 -63 11 -14 8 -258 45 -344 52 -49 4 -225 7 -390 6
-232 0 -326 -4 -415 -18 -568 -86 -1016 -255 -1465 -552 -478 -318 -892 -783
-1153 -1296 -85 -167 -99 -199 -159 -358 -23 -61 -90 -268 -97 -300 -2 -8 -9
-35 -16 -60 -7 -25 -14 -54 -16 -65 -2 -11 -13 -65 -24 -120 -11 -55 -22 -122
-26 -150 -3 -27 -8 -52 -9 -55 -18 -30 -28 -662 -13 -810 26 -249 91 -543 175
-784 197 -566 539 -1068 1003 -1470 291 -251 641 -463 1000 -604 126 -49 385
-130 470 -145 14 -3 57 -12 95 -21 39 -8 86 -17 105 -20 19 -2 58 -8 85 -11
28 -4 61 -9 75 -11 88 -14 180 -19 370 -19 201 0 450 10 495 18 11 3 43 8 70
12 61 8 237 42 285 55 19 5 64 16 100 25 69 18 322 99 355 115 11 5 49 21 85
35 264 106 584 296 826 490 311 250 584 562 794 909 263 437 429 933 477 1427
10 103 11 621 1 704 -7 63 -24 180 -33 230 -13 72 -25 132 -30 155 -3 14 -8
36 -11 50 -10 51 -57 217 -86 304 -53 160 -94 257 -188 446 -216 435 -500 792
-895 1125 -33 28 -73 62 -89 76 l-29 26 37 64 c20 35 71 118 113 184 115 181
183 295 183 304 0 9 -112 89 -263 186 -59 39 -118 77 -130 85 -13 8 -44 29
-71 45 l-47 30 6 70 c3 39 12 97 20 130 14 63 11 59 172 205 132 119 140 124
278 172 54 19 80 23 115 18 25 -4 74 -11 110 -14 36 -4 110 -16 165 -27 55
-11 116 -22 135 -25 19 -3 51 -9 70 -14 67 -17 166 -25 320 -25 136 0 293 10
309 20 4 1 33 6 66 10 33 3 107 15 165 26 147 26 141 27 136 -23 -18 -168 -19
-208 -3 -208 14 0 65 55 180 192 l48 58 42 -22 c23 -11 60 -33 82 -47 49 -33
96 -54 103 -46 3 3 -2 47 -12 98 -26 132 -30 167 -17 167 14 0 177 27 249 41
28 6 52 14 52 18 0 9 -44 32 -152 80 -38 16 -68 34 -68 39 0 4 33 67 74 138
41 71 72 133 69 137 -8 13 -45 0 -170 -59 -64 -30 -120 -51 -124 -47 -5 5 -31
63 -58 128 -73 179 -99 235 -109 235 -10 0 -16 -27 -27 -110 -3 -25 -8 -54
-10 -65 -2 -11 -4 -30 -4 -42 -1 -22 -2 -22 -29 -5 -25 15 -79 58 -142 112
-175 152 -210 177 -210 151z"/>
</g>
</svg>
